<?xml version="1.0" encoding="UTF-8" standalone="no"?>
<!-- Created with Inkscape (http://www.inkscape.org/) -->

<svg
   xmlns:dc="http://purl.org/dc/elements/1.1/"
   xmlns:cc="http://creativecommons.org/ns#"
   xmlns:rdf="http://www.w3.org/1999/02/22-rdf-syntax-ns#"
   xmlns:svg="http://www.w3.org/2000/svg"
   xmlns="http://www.w3.org/2000/svg"
   xmlns:sodipodi="http://sodipodi.sourceforge.net/DTD/sodipodi-0.dtd"
   xmlns:inkscape="http://www.inkscape.org/namespaces/inkscape"
   id="svg2"
   version="1.1"
   inkscape:version="0.91 r13725"
   xml:space="preserve"
   width="81.883942"
   height="18"
   viewBox="0 0 81.883942 18"
   sodipodi:docname="qubelaLogoChiquitoColor.svg"><metadata
     id="metadata8"><rdf:RDF><cc:Work
         rdf:about=""><dc:format>image/svg+xml</dc:format><dc:type
           rdf:resource="http://purl.org/dc/dcmitype/StillImage" /><dc:title></dc:title></cc:Work></rdf:RDF></metadata><defs
     id="defs6"><clipPath
       clipPathUnits="userSpaceOnUse"
       id="clipPath16"><path
         d="m 0,422.908 616.467,0 L 616.467,0 0,0 0,422.908 Z"
         id="path18"
         inkscape:connector-curvature="0" /></clipPath><linearGradient
       x1="0"
       y1="0"
       x2="1"
       y2="0"
       gradientUnits="userSpaceOnUse"
       gradientTransform="matrix(-2.5e-6,56.366199,56.366199,2.5e-6,387.79834,319.56445)"
       spreadMethod="pad"
       id="linearGradient52"><stop
         style="stop-opacity:1;stop-color:#399cc6"
         offset="0"
         id="stop54" /><stop
         style="stop-opacity:1;stop-color:#46c1f5"
         offset="0.41503764"
         id="stop56" /><stop
         style="stop-opacity:1;stop-color:#46c1f5"
         offset="1"
         id="stop58" /></linearGradient><clipPath
       clipPathUnits="userSpaceOnUse"
       id="clipPath66"><path
         d="m 0,422.908 616.467,0 L 616.467,0 0,0 0,422.908 Z"
         id="path68"
         inkscape:connector-curvature="0" /></clipPath><clipPath
       clipPathUnits="userSpaceOnUse"
       id="clipPath214"><path
         d="m 0,422.908 616.467,0 L 616.467,0 0,0 0,422.908 Z"
         id="path216"
         inkscape:connector-curvature="0" /></clipPath><clipPath
       clipPathUnits="userSpaceOnUse"
       id="clipPath222"><path
         d="m 465.208,25.3428 130.162,0 0,-10.6856 -130.162,0 0,10.6856 z"
         id="path224"
         inkscape:connector-curvature="0" /></clipPath></defs><sodipodi:namedview
     pagecolor="#ffffff"
     bordercolor="#666666"
     borderopacity="1"
     objecttolerance="10"
     gridtolerance="10"
     guidetolerance="10"
     inkscape:pageopacity="0"
     inkscape:pageshadow="2"
     inkscape:window-width="1366"
     inkscape:window-height="719"
     id="namedview4"
     showgrid="false"
     fit-margin-top="0"
     fit-margin-left="0"
     fit-margin-right="0"
     fit-margin-bottom="0"
     inkscape:zoom="1.9317053"
     inkscape:cx="40.941967"
     inkscape:cy="8.9999997"
     inkscape:window-x="0"
     inkscape:window-y="25"
     inkscape:window-maximized="1"
     inkscape:current-layer="g10" /><g
     id="g10"
     inkscape:groupmode="layer"
     inkscape:label="Qubela_Logo_V2"
     transform="matrix(1.25,0,0,-1.25,-434.31916,143.41445)"><g
       id="g4625"
       transform="matrix(0.19996921,0,0,0.19996921,304.17883,86.028557)"><path
         d="m 230.665,115.8672 7.881,-3.877 c 1.501,-0.739 2.565,-2.967 2.378,-4.977 l -0.985,-10.555 c -0.188,-2.01 -1.557,-3.041 -3.057,-2.303 L 229,98.0322 c -1.501,0.739 -2.565,2.967 -2.378,4.978 l 0.985,10.554 c 0.188,2.011 1.557,3.042 3.058,2.303"
         style="fill:#44aad5;fill-opacity:1;fill-rule:evenodd;stroke:none"
         id="path142"
         inkscape:connector-curvature="0" /><path
         d="m 253.8086,115.6514 -8.565,-3.446 c -1.632,-0.657 -3.105,-2.819 -3.293,-4.828 l -0.985,-10.555 c -0.187,-2.011 0.983,-3.108 2.614,-2.451 l 8.564,3.446 c 1.632,0.656 3.106,2.818 3.293,4.828 l 0.986,10.555 c 0.187,2.011 -0.983,3.108 -2.614,2.451"
         style="fill:#4a818b;fill-opacity:1;fill-rule:evenodd;stroke:none"
         id="path146"
         inkscape:connector-curvature="0" /><path
         d="m 232.5986,119.3096 8.564,3.375 c 1.631,0.645 4.093,0.613 5.499,-0.068 l 7.378,-3.579 c 1.405,-0.682 1.222,-1.756 -0.409,-2.399 l -8.564,-3.377 c -1.631,-0.642 -4.093,-0.612 -5.498,0.07 l -7.379,3.581 c -1.405,0.68 -1.222,1.754 0.409,2.397"
         style="fill:#77d1f7;fill-opacity:1;fill-rule:evenodd;stroke:none"
         id="path150"
         inkscape:connector-curvature="0" /><path
         d="m 242.0928,87.7178 c -11.535,0 -20.886,9.097 -20.886,20.319 0,11.222 9.351,20.32 20.886,20.32 11.535,0 20.886,-9.098 20.886,-20.32 0,-11.222 -9.351,-20.319 -20.886,-20.319 m -0.237,45.069 c -14.051,0 -25.44,-11.082 -25.44,-24.75 0,-13.669 11.389,-24.75 25.44,-24.75 14.05,0 25.44,11.081 25.44,24.75 0,13.668 -11.39,24.75 -25.44,24.75"
         style="fill:#e2f3fa;fill-opacity:1;fill-rule:evenodd;stroke:none"
         id="path154"
         inkscape:connector-curvature="0" /><path
         d="m 301.6973,85.8086 c -1.972,-0.538 -4.06,-0.81 -6.264,-0.816 -6.118,-0.019 -11.34,2.012 -15.66,6.093 -4.322,4.08 -6.492,9.027 -6.509,14.839 -0.018,5.813 2.121,10.773 6.419,14.879 4.296,4.108 9.504,6.17 15.622,6.189 6.119,0.018 11.338,-2.013 15.661,-6.093 4.321,-4.081 6.491,-9.028 6.508,-14.84 l 0.1,-33 -9.473,-0.029 -0.101,33.328 c -0.076,3.156 -1.319,5.871 -3.726,8.145 -2.474,2.336 -5.455,3.499 -8.941,3.489 -3.488,-0.011 -6.46,-1.192 -8.92,-3.543 -2.46,-2.351 -3.686,-5.183 -3.675,-8.495 0.009,-3.313 1.252,-6.137 3.726,-8.474 2.474,-2.336 5.454,-3.499 8.941,-3.488 2.302,0.006 4.391,0.529 6.263,1.566 l 0.029,-9.75 z"
         style="fill:#4bbaeb;fill-opacity:1;fill-rule:nonzero;stroke:none"
         id="path158"
         inkscape:connector-curvature="0" /><path
         d="m 301.6973,85.8086 c -1.972,-0.538 -4.06,-0.81 -6.264,-0.816 -6.118,-0.019 -11.34,2.012 -15.66,6.093 -4.322,4.08 -6.492,9.027 -6.509,14.839 -0.018,5.813 2.121,10.773 6.419,14.879 4.296,4.108 9.504,6.17 15.622,6.189 6.119,0.018 11.338,-2.013 15.661,-6.093 4.321,-4.081 6.491,-9.028 6.508,-14.84 l 0.1,-33 -9.473,-0.029 -0.101,33.328 c -0.076,3.156 -1.319,5.871 -3.726,8.145 -2.474,2.336 -5.455,3.499 -8.941,3.489 -3.488,-0.011 -6.46,-1.192 -8.92,-3.543 -2.46,-2.351 -3.686,-5.183 -3.675,-8.495 0.009,-3.313 1.252,-6.137 3.726,-8.474 2.474,-2.336 5.454,-3.499 8.941,-3.488 2.302,0.006 4.391,0.529 6.263,1.566 l 0.029,-9.75 z"
         style="fill:none;stroke:#4cbbec;stroke-width:3;stroke-linecap:butt;stroke-linejoin:miter;stroke-miterlimit:10;stroke-dasharray:none;stroke-opacity:1"
         id="path162"
         inkscape:connector-curvature="0" /><path
         inkscape:connector-curvature="0"
         id="path164"
         style="fill:#4bbaeb;fill-opacity:1;fill-rule:nonzero;stroke:none"
         d="m 350.717,127.038 9.474,0 0,-42.106 -9.474,0 0,42.106 z m -6.316,-42 c -6.118,0 -11.332,2.047 -15.641,6.141 -4.31,4.093 -6.464,9.047 -6.464,14.859 l 0,21 9.474,0 0,-21 c 0,-3.312 1.233,-6.141 3.7,-8.484 2.467,-2.344 5.444,-3.516 8.931,-3.516 l 0,-9 z" /><path
         inkscape:connector-curvature="0"
         id="path166"
         style="fill:none;stroke:#4cbbec;stroke-width:3;stroke-linecap:butt;stroke-linejoin:miter;stroke-miterlimit:10;stroke-dasharray:none;stroke-opacity:1"
         d="m 350.717,127.038 9.474,0 0,-42.106 -9.474,0 0,42.106 z m -6.316,-42 c -6.118,0 -11.332,2.047 -15.641,6.141 -4.31,4.093 -6.464,9.047 -6.464,14.859 l 0,21 9.474,0 0,-21 c 0,-3.312 1.233,-6.141 3.7,-8.484 2.467,-2.344 5.444,-3.516 8.931,-3.516 l 0,-9 z" /><path
         d="m 380.5205,125.2402 c 1.974,0.531 4.062,0.797 6.267,0.797 6.118,0 11.331,-2.047 15.641,-6.141 4.309,-4.094 6.464,-9.047 6.464,-14.859 0,-5.813 -2.155,-10.766 -6.464,-14.86 -4.31,-4.093 -9.523,-6.14 -15.641,-6.14 -6.119,0 -11.333,2.047 -15.642,6.14 -4.31,4.094 -6.464,9.047 -6.464,14.86 l 0,33 9.474,0 0,-33.328 c 0.065,-3.156 1.299,-5.875 3.7,-8.156 2.468,-2.344 5.444,-3.516 8.932,-3.516 3.486,0 6.463,1.172 8.931,3.516 2.467,2.343 3.7,5.171 3.7,8.484 0,3.312 -1.233,6.14 -3.7,8.484 -2.468,2.344 -5.445,3.516 -8.931,3.516 -2.303,0 -4.392,-0.516 -6.267,-1.547 l 0,9.75 z"
         style="fill:#4bbaeb;fill-opacity:1;fill-rule:nonzero;stroke:none"
         id="path170"
         inkscape:connector-curvature="0" /><path
         d="m 380.5205,125.2402 c 1.974,0.531 4.062,0.797 6.267,0.797 6.118,0 11.331,-2.047 15.641,-6.141 4.309,-4.094 6.464,-9.047 6.464,-14.859 0,-5.813 -2.155,-10.766 -6.464,-14.86 -4.31,-4.093 -9.523,-6.14 -15.641,-6.14 -6.119,0 -11.333,2.047 -15.642,6.14 -4.31,4.094 -6.464,9.047 -6.464,14.86 l 0,33 9.474,0 0,-33.328 c 0.065,-3.156 1.299,-5.875 3.7,-8.156 2.468,-2.344 5.444,-3.516 8.932,-3.516 3.486,0 6.463,1.172 8.931,3.516 2.467,2.343 3.7,5.171 3.7,8.484 0,3.312 -1.233,6.14 -3.7,8.484 -2.468,2.344 -5.445,3.516 -8.931,3.516 -2.303,0 -4.392,-0.516 -6.267,-1.547 l 0,9.75 z"
         style="fill:none;stroke:#4cbbec;stroke-width:3;stroke-linecap:butt;stroke-linejoin:miter;stroke-miterlimit:10;stroke-dasharray:none;stroke-opacity:1"
         id="path174"
         inkscape:connector-curvature="0" /><path
         d="m 447.1113,109.2881 c -0.534,2.233 -1.651,4.214 -3.352,5.941 -2.501,2.538 -5.52,3.808 -9.054,3.808 -3.535,0 -6.553,-1.27 -9.054,-3.808 -2.501,-2.539 -3.752,-5.603 -3.752,-9.191 0,-3.589 1.251,-6.653 3.752,-9.192 2.501,-2.538 5.519,-3.808 9.054,-3.808 3.534,0 6.536,1.252 9.005,3.758 l 6.803,-6.906 c -4.336,-4.401 -9.605,-6.602 -15.808,-6.602 -6.203,0 -11.49,2.217 -15.858,6.651 -4.369,4.435 -6.553,9.801 -6.553,16.099 0,6.297 2.184,11.662 6.553,16.098 4.368,4.434 9.655,6.651 15.858,6.651 6.203,0 11.489,-2.217 15.858,-6.651 4.368,-4.436 6.553,-9.801 6.553,-16.098 0,-2.302 -0.284,-4.47 -0.851,-6.501 l -21.56,0 0,9.751 12.406,0 z"
         style="fill:#4bbaeb;fill-opacity:1;fill-rule:nonzero;stroke:none"
         id="path178"
         inkscape:connector-curvature="0" /><path
         d="m 447.1113,109.2881 c -0.534,2.233 -1.651,4.214 -3.352,5.941 -2.501,2.538 -5.52,3.808 -9.054,3.808 -3.535,0 -6.553,-1.27 -9.054,-3.808 -2.501,-2.539 -3.752,-5.603 -3.752,-9.191 0,-3.589 1.251,-6.653 3.752,-9.192 2.501,-2.538 5.519,-3.808 9.054,-3.808 3.534,0 6.536,1.252 9.005,3.758 l 6.803,-6.906 c -4.336,-4.401 -9.605,-6.602 -15.808,-6.602 -6.203,0 -11.49,2.217 -15.858,6.651 -4.369,4.435 -6.553,9.801 -6.553,16.099 0,6.297 2.184,11.662 6.553,16.098 4.368,4.434 9.655,6.651 15.858,6.651 6.203,0 11.489,-2.217 15.858,-6.651 4.368,-4.436 6.553,-9.801 6.553,-16.098 0,-2.302 -0.284,-4.47 -0.851,-6.501 l -21.56,0 0,9.751 12.406,0 z"
         style="fill:none;stroke:#4cbbec;stroke-width:3;stroke-linecap:butt;stroke-linejoin:miter;stroke-miterlimit:10;stroke-dasharray:none;stroke-opacity:1"
         id="path182"
         inkscape:connector-curvature="0" /><path
         d="m 479.0112,111.0371 c 0,-1.656 -0.617,-3.07 -1.851,-4.242 -1.233,-1.172 -2.722,-1.758 -4.465,-1.758 -1.744,0 -3.232,0.586 -4.465,1.758 -1.234,1.172 -1.851,2.586 -1.851,4.242 0,1.656 0.617,3.07 1.851,4.242 1.233,1.172 2.721,1.758 4.465,1.758 1.743,0 3.232,-0.586 4.465,-1.758 1.234,-1.172 1.851,-2.586 1.851,-4.242"
         style="fill:#4bbaeb;fill-opacity:1;fill-rule:nonzero;stroke:none"
         id="path186"
         inkscape:connector-curvature="0" /><path
         d="m 479.0112,111.0371 c 0,-1.656 -0.617,-3.07 -1.851,-4.242 -1.233,-1.172 -2.722,-1.758 -4.465,-1.758 -1.744,0 -3.232,0.586 -4.465,1.758 -1.234,1.172 -1.851,2.586 -1.851,4.242 0,1.656 0.617,3.07 1.851,4.242 1.233,1.172 2.721,1.758 4.465,1.758 1.743,0 3.232,-0.586 4.465,-1.758 1.234,-1.172 1.851,-2.586 1.851,-4.242 z"
         style="fill:none;stroke:#4cbbec;stroke-width:3;stroke-linecap:butt;stroke-linejoin:miter;stroke-miterlimit:10;stroke-dasharray:none;stroke-opacity:1"
         id="path190"
         inkscape:connector-curvature="0" /><path
         inkscape:connector-curvature="0"
         id="path192"
         style="fill:#4bbaeb;fill-opacity:1;fill-rule:nonzero;stroke:#4cbbec;stroke-width:3;stroke-linecap:butt;stroke-linejoin:miter;stroke-miterlimit:10;stroke-dasharray:none;stroke-opacity:1"
         d="m 494.654,85.799 -9.474,0 0,54 9.474,0 0,-54 z" /><path
         d="m 525.4307,85.834 c -1.975,-0.531 -4.063,-0.797 -6.267,-0.797 -6.119,0 -11.333,2.047 -15.642,6.141 -4.309,4.094 -6.463,9.047 -6.463,14.859 0,5.813 2.154,10.766 6.463,14.86 4.309,4.093 9.523,6.14 15.642,6.14 6.119,0 11.331,-2.047 15.642,-6.14 4.309,-4.094 6.463,-9.047 6.463,-14.86 l 0,-21 -9.473,0 0,21.328 c -0.066,3.156 -1.301,5.875 -3.701,8.156 -2.467,2.344 -5.445,3.516 -8.931,3.516 -3.488,0 -6.464,-1.172 -8.931,-3.516 -2.467,-2.343 -3.701,-5.171 -3.701,-8.484 0,-3.312 1.234,-6.14 3.701,-8.484 2.467,-2.344 5.443,-3.516 8.931,-3.516 2.302,0 4.392,0.516 6.267,1.547 l 0,-9.75 z"
         style="fill:#4bbaeb;fill-opacity:1;fill-rule:nonzero;stroke:none"
         id="path196"
         inkscape:connector-curvature="0" /><path
         d="m 525.4307,85.834 c -1.975,-0.531 -4.063,-0.797 -6.267,-0.797 -6.119,0 -11.333,2.047 -15.642,6.141 -4.309,4.094 -6.463,9.047 -6.463,14.859 0,5.813 2.154,10.766 6.463,14.86 4.309,4.093 9.523,6.14 15.642,6.14 6.119,0 11.331,-2.047 15.642,-6.14 4.309,-4.094 6.463,-9.047 6.463,-14.86 l 0,-21 -9.473,0 0,21.328 c -0.066,3.156 -1.301,5.875 -3.701,8.156 -2.467,2.344 -5.445,3.516 -8.931,3.516 -3.488,0 -6.464,-1.172 -8.931,-3.516 -2.467,-2.343 -3.701,-5.171 -3.701,-8.484 0,-3.312 1.234,-6.14 3.701,-8.484 2.467,-2.344 5.443,-3.516 8.931,-3.516 2.302,0 4.392,0.516 6.267,1.547 l 0,-9.75 z"
         style="fill:none;stroke:#4cbbec;stroke-width:3;stroke-linecap:butt;stroke-linejoin:miter;stroke-miterlimit:10;stroke-dasharray:none;stroke-opacity:1"
         id="path200"
         inkscape:connector-curvature="0" /><path
         d="m 542.502,136.0371 c 0,-1.656 -0.617,-3.07 -1.851,-4.242 -1.233,-1.172 -2.721,-1.758 -4.465,-1.758 -1.745,0 -3.232,0.586 -4.465,1.758 -1.235,1.172 -1.851,2.586 -1.851,4.242 0,1.656 0.616,3.07 1.851,4.242 1.233,1.172 2.72,1.758 4.465,1.758 1.744,0 3.232,-0.586 4.465,-1.758 1.234,-1.172 1.851,-2.586 1.851,-4.242"
         style="fill:#4bbaeb;fill-opacity:1;fill-rule:nonzero;stroke:none"
         id="path204"
         inkscape:connector-curvature="0" /><path
         d="m 542.502,136.0371 c 0,-1.656 -0.617,-3.07 -1.851,-4.242 -1.233,-1.172 -2.721,-1.758 -4.465,-1.758 -1.745,0 -3.232,0.586 -4.465,1.758 -1.235,1.172 -1.851,2.586 -1.851,4.242 0,1.656 0.616,3.07 1.851,4.242 1.233,1.172 2.72,1.758 4.465,1.758 1.744,0 3.232,-0.586 4.465,-1.758 1.234,-1.172 1.851,-2.586 1.851,-4.242 z"
         style="fill:none;stroke:#4cbbec;stroke-width:3;stroke-linecap:butt;stroke-linejoin:miter;stroke-miterlimit:10;stroke-dasharray:none;stroke-opacity:1"
         id="path208"
         inkscape:connector-curvature="0" /></g></g></svg>