<?xml version="1.0" encoding="UTF-8" standalone="no"?>
<!-- Created with Inkscape (http://www.inkscape.org/) -->

<svg
   xmlns:osb="http://www.openswatchbook.org/uri/2009/osb"
   xmlns:dc="http://purl.org/dc/elements/1.1/"
   xmlns:cc="http://creativecommons.org/ns#"
   xmlns:rdf="http://www.w3.org/1999/02/22-rdf-syntax-ns#"
   xmlns:svg="http://www.w3.org/2000/svg"
   xmlns="http://www.w3.org/2000/svg"
   xmlns:sodipodi="http://sodipodi.sourceforge.net/DTD/sodipodi-0.dtd"
   xmlns:inkscape="http://www.inkscape.org/namespaces/inkscape"
   id="svg2"
   version="1.1"
   inkscape:version="0.91 r13725"
   xml:space="preserve"
   width="431.78519"
   height="92"
   viewBox="0 0 431.7852 92.000002"
   sodipodi:docname="qubelaLogoBlanco431x92.svg"><metadata
     id="metadata8"><rdf:RDF><cc:Work
         rdf:about=""><dc:format>image/svg+xml</dc:format><dc:type
           rdf:resource="http://purl.org/dc/dcmitype/StillImage" /><dc:title></dc:title></cc:Work></rdf:RDF></metadata><defs
     id="defs6"><linearGradient
       id="linearGradient4456"
       osb:paint="solid"><stop
         style="stop-color:#ffffff;stop-opacity:1;"
         offset="0"
         id="stop4458" /></linearGradient><clipPath
       clipPathUnits="userSpaceOnUse"
       id="clipPath16"><path
         d="m 0,422.908 616.467,0 L 616.467,0 0,0 0,422.908 Z"
         id="path18"
         inkscape:connector-curvature="0" /></clipPath><clipPath
       clipPathUnits="userSpaceOnUse"
       id="clipPath44"><path
         d="m 302.542,374.743 -6.344,-29.719 c -0.309,-1.466 -0.463,-2.761 -0.463,-3.881 l 0,0 c 0,-2.491 0.608,-4.296 1.825,-5.416 l 0,0 c 1.236,-1.12 2.636,-1.68 4.2,-1.68 l 0,0 c 3.425,0 6.283,1.212 8.582,3.622 l 0,0 c 1.546,-2.325 4.197,-3.506 7.989,-3.506 l 0,0 c 3.687,0 6.854,1.622 9.5,4.866 l 0,0 c 2.645,3.245 4.201,7.57 4.663,12.977 l 0,0 c 1.565,0.261 2.992,0.632 4.301,1.093 l 0,0 c -0.067,-0.177 -0.151,-0.335 -0.216,-0.514 l 0,0 c -0.56,-1.545 -0.975,-3.095 -1.245,-4.65 l 0,0 c -0.271,-1.554 -0.406,-3.109 -0.406,-4.662 l 0,0 c 0,-1.556 0.222,-2.941 0.666,-4.157 l 0,0 c 1.235,-3.38 3.649,-5.069 7.241,-5.069 l 0,0 c 2.685,0 5.059,1.081 7.125,3.244 l 0,0 -0.723,-3.128 c -6.449,-2.143 -9.674,-5.02 -9.674,-8.632 l 0,0 c 0,-2.085 0.646,-3.601 1.94,-4.548 l 0,0 c 1.293,-0.946 3.013,-1.418 5.156,-1.418 l 0,0 c 2.143,0 4.045,0.617 5.706,1.853 l 0,0 c 2.259,1.679 3.766,4.422 4.519,8.227 l 0,0 0.897,4.286 c 0.908,0.232 1.854,0.569 2.839,1.014 l 0,0 c 1.34,0.605 2.534,1.453 3.584,2.541 l 0,0 c 1.562,-2.202 4.17,-3.323 7.86,-3.323 l 0,0 c 3.689,0 6.855,1.622 9.501,4.866 l 0,0 c 2.645,3.245 4.199,7.57 4.664,12.977 l 0,0 c 1.334,0.222 2.565,0.528 3.713,0.897 l 0,0 -1.686,-7.879 c -0.307,-1.466 -0.462,-2.761 -0.462,-3.881 l 0,0 c 0,-2.491 0.608,-4.296 1.825,-5.416 l 0,0 c 1.235,-1.12 2.635,-1.68 4.199,-1.68 l 0,0 c 3.648,0 6.653,1.375 9.024,4.109 l 0,0 c 0.301,-1.009 0.776,-1.823 1.434,-2.429 l 0,0 c 1.236,-1.12 2.742,-1.68 4.519,-1.68 l 0,0 c 2.703,0 5.078,1.1 7.126,3.302 l 0,0 -0.666,-2.897 c -2.685,-0.81 -4.867,-1.901 -6.547,-3.273 l 0,0 c -2.125,-1.699 -3.186,-3.586 -3.186,-5.663 l 0,0 c 0,-2.075 0.646,-3.586 1.94,-4.533 l 0,0 c 1.294,-0.946 3.013,-1.418 5.156,-1.418 l 0,0 c 2.143,0 4.046,0.617 5.706,1.853 l 0,0 c 2.26,1.679 3.766,4.422 4.519,8.227 l 0,0 0.899,4.228 c 1.853,0.347 3.774,0.56 5.764,0.638 l 0,0 -3.158,-14.946 8.95,2.143 2.664,12.512 c 1.642,-0.116 3.466,-0.173 5.475,-0.173 l 0,0 c 3.573,0 6.537,1.216 8.893,3.649 l 0,0 c 1.97,2.009 3.457,4.77 4.461,8.285 l 0,0 c 0.444,1.544 0.763,3.094 0.956,4.649 l 0,0 c 0.193,1.554 0.289,3.109 0.289,4.663 l 0,0 c 0,1.554 -0.183,2.93 -0.55,4.128 l 0,0 c -1.043,3.282 -3.273,4.923 -6.691,4.923 l 0,0 c -2.665,0 -4.983,-0.849 -6.951,-2.548 l 0,0 0.955,4.461 -8.545,0 -5.996,-28.3 c -1.931,-0.309 -3.91,-0.686 -5.938,-1.13 l 0,0 5.822,27.228 -8.544,0 -4.142,-19.406 c -0.445,-1.372 -1.053,-2.531 -1.825,-3.476 l 0,0 c -0.792,-0.928 -1.752,-1.391 -2.883,-1.391 l 0,0 c -1.128,0 -1.694,0.87 -1.694,2.607 l 0,0 c 0,0.502 0.058,1.003 0.174,1.506 l 0,0 4.258,20.16 -8.545,0 -4.026,-19.031 c -0.245,-1.162 -0.388,-2.211 -0.44,-3.155 l 0,0 c -0.161,-0.199 -0.323,-0.398 -0.503,-0.581 l 0,0 c -0.994,-1.003 -2.071,-1.506 -3.23,-1.506 l 0,0 c -1.603,0 -2.404,0.666 -2.404,1.999 l 0,0 c 0,0.694 0.078,1.4 0.233,2.114 l 0,0 3.794,17.784 3.562,0 0.464,2.376 -3.563,0 2.028,9.386 -8.777,-1.188 -1.796,-8.198 -1.94,0 -0.493,-2.376 1.969,0 -1.292,-6.042 c -1.226,-0.426 -2.269,-0.648 -3.111,-0.648 l 0,0 c -0.464,0 -0.792,0.019 -0.985,0.058 l 0,0 0,0.058 c 0,6.315 -2.54,9.472 -7.618,9.472 l 0,0 c -3.746,0 -6.952,-1.314 -9.616,-3.939 l 0,0 c -2.241,-2.202 -3.95,-5.07 -5.127,-8.604 l 0,0 c -0.521,-1.563 -0.903,-3.085 -1.145,-4.561 l 0,0 c -0.241,-1.478 -0.362,-2.931 -0.362,-4.36 l 0,0 c 0,-1.243 0.186,-2.385 0.537,-3.437 l 0,0 c -0.116,-0.139 -0.232,-0.275 -0.351,-0.4 l 0,0 c -1.169,-1.227 -2.65,-2.14 -4.446,-2.738 l 0,0 5.88,27.517 -8.544,0 -0.638,-3.069 0,0.347 c 0,0.868 -0.377,1.588 -1.129,2.157 l 0,0 c -0.753,0.57 -1.98,0.854 -3.679,0.854 l 0,0 c -3.244,0 -6.016,-1.109 -8.313,-3.331 l 0,0 c -1.415,-1.367 -2.604,-2.985 -3.617,-4.799 l 0,0 c -0.161,-0.07 -0.318,-0.144 -0.482,-0.211 l 0,0 c -1.671,-0.677 -3.037,-1.014 -4.099,-1.014 l 0,0 c -0.463,0 -0.792,0.019 -0.984,0.058 l 0,0 0,0.058 c 0,6.315 -2.54,9.472 -7.618,9.472 l 0,0 c -3.747,0 -6.952,-1.314 -9.617,-3.939 l 0,0 c -2.24,-2.202 -3.95,-5.07 -5.127,-8.604 l 0,0 c -0.522,-1.563 -0.902,-3.085 -1.144,-4.561 l 0,0 c -0.241,-1.478 -0.361,-2.931 -0.361,-4.36 l 0,0 c 0,-0.887 0.099,-1.72 0.278,-2.51 l 0,0 c -0.765,-0.543 -1.572,-0.821 -2.425,-0.821 l 0,0 c -1.603,0 -2.404,0.666 -2.404,1.999 l 0,0 c 0,0.694 0.077,1.4 0.231,2.114 l 0,0 6.807,32.036 -8.776,-1.188 z m 70.478,-35.048 c -0.387,0.135 -0.753,0.458 -1.1,0.971 l 0,0 c -0.348,0.51 -0.522,1.723 -0.522,3.634 l 0,0 c 0,3.109 0.83,6.668 2.491,10.674 l 0,0 c 1.661,4.007 3.398,6.012 5.214,6.012 l 0,0 c 0.926,0 1.549,-0.262 1.868,-0.783 l 0,0 c 0.318,-0.522 0.516,-1.41 0.594,-2.665 l 0,0 c -1.236,-0.56 -1.854,-1.584 -1.854,-3.07 l 0,0 c 0,-1.487 0.531,-2.366 1.593,-2.636 l 0,0 c -0.464,-3.476 -1.361,-6.401 -2.694,-8.777 l 0,0 c -1.332,-2.375 -2.675,-3.562 -4.026,-3.562 l 0,0 c -0.657,0 -1.178,0.066 -1.564,0.202 m -53.733,0 c -0.387,0.135 -0.754,0.458 -1.102,0.971 l 0,0 c -0.346,0.51 -0.52,1.723 -0.52,3.634 l 0,0 c 0,3.109 0.83,6.668 2.49,10.674 l 0,0 c 1.661,4.007 3.399,6.012 5.214,6.012 l 0,0 c 0.928,0 1.55,-0.262 1.868,-0.783 l 0,0 c 0.319,-0.522 0.517,-1.41 0.594,-2.665 l 0,0 c -1.235,-0.56 -1.854,-1.584 -1.854,-3.07 l 0,0 c 0,-1.487 0.531,-2.366 1.594,-2.636 l 0,0 c -0.463,-3.476 -1.361,-6.401 -2.694,-8.777 l 0,0 c -1.332,-2.375 -2.675,-3.562 -4.026,-3.562 l 0,0 c -0.657,0 -1.178,0.066 -1.564,0.202 m 25.518,0.724 c -0.734,0.695 -1.1,1.922 -1.1,3.679 l 0,0 c 0,0.908 0.047,1.767 0.144,2.578 l 0,0 c 0.638,5.31 2.211,9.385 4.722,12.223 l 0,0 c 1.042,1.178 2.191,1.767 3.447,1.767 l 0,0 c 0.482,0 0.878,-0.087 1.187,-0.261 l 0,0 c 0.83,-0.405 1.246,-1.052 1.246,-1.94 l 0,0 -3.013,-14.048 c -0.387,-1.41 -1.053,-2.535 -1.999,-3.375 l 0,0 c -0.946,-0.84 -1.97,-1.26 -3.069,-1.26 l 0,0 c -0.619,0 -1.141,0.212 -1.565,0.637 m 98.024,16.742 c 0.56,0.986 1.217,1.718 1.97,2.203 l 0,0 c 0.754,0.482 1.468,0.723 2.144,0.723 l 0,0 c 1.969,0 2.954,-1.641 2.954,-4.924 l 0,0 c 0,-1.39 -0.145,-3.023 -0.434,-4.896 l 0,0 c -0.561,-4.152 -1.883,-7.357 -3.969,-9.615 l 0,0 c -1.081,-1.159 -2.384,-1.739 -3.91,-1.739 l 0,0 -1.304,0 c -0.425,0 -0.859,-0.02 -1.303,-0.058 l 0,0 3.852,18.306 z m -32.904,-32.789 c -0.753,0.387 -1.13,0.975 -1.13,1.767 l 0,0 c 0,1.97 1.931,3.65 5.793,5.04 l 0,0 -0.348,-1.708 c -0.386,-1.796 -0.898,-3.125 -1.535,-3.983 l 0,0 c -0.637,-0.859 -1.197,-1.29 -1.68,-1.29 l 0,0 c -0.483,0 -0.85,0.059 -1.1,0.174 m -65.959,0 c -0.754,0.387 -1.131,0.975 -1.131,1.767 l 0,0 c 0,1.97 1.931,3.65 5.793,5.04 l 0,0 -0.347,-1.708 c -0.387,-1.796 -0.898,-3.125 -1.535,-3.983 l 0,0 c -0.638,-0.859 -1.197,-1.29 -1.68,-1.29 l 0,0 c -0.483,0 -0.85,0.059 -1.1,0.174 m 123.962,39.104 c -3.032,-1.372 -5.427,-3.67 -7.184,-6.894 l 0,0 c -2.297,-4.228 -3.447,-8.602 -3.447,-13.121 l 0,0 c 0,-3.36 0.841,-5.769 2.52,-7.227 l 0,0 c 1.68,-1.458 3.911,-2.187 6.692,-2.187 l 0,0 c 5.773,0 9.191,2.926 10.253,8.776 l 0,0 c -0.946,-0.83 -2.061,-1.563 -3.345,-2.201 l 0,0 c -1.285,-0.638 -2.477,-0.956 -3.577,-0.956 l 0,0 c -2.511,0 -3.766,1.642 -3.766,4.925 l 0,0 c 0,0.656 0.048,1.255 0.145,1.796 l 0,0 c 3.668,0.231 6.859,1.524 9.573,3.88 l 0,0 c 2.713,2.356 4.069,5.233 4.069,8.632 l 0,0 c 0,1.719 -0.492,3.095 -1.476,4.129 l 0,0 c -0.985,1.032 -2.849,1.549 -5.591,1.549 l 0,0 c -1.68,0 -3.302,-0.367 -4.866,-1.101 m 0.463,-8.574 c 1.738,4.287 3.544,6.469 5.417,6.546 l 0,0 c 0.985,0 1.477,-0.715 1.477,-2.144 l 0,0 c 0,-2.683 -0.874,-5.015 -2.621,-6.995 l 0,0 c -1.748,-1.979 -3.761,-3.007 -6.04,-3.085 l 0,0 c 0.444,1.951 1.033,3.843 1.767,5.678"
         id="path46"
         inkscape:connector-curvature="0" /></clipPath><linearGradient
       x1="0"
       y1="0"
       x2="1"
       y2="0"
       gradientUnits="userSpaceOnUse"
       gradientTransform="matrix(-2.5e-6,56.366199,56.366199,2.5e-6,387.79834,319.56445)"
       spreadMethod="pad"
       id="linearGradient52"><stop
         style="stop-opacity:1;stop-color:#399cc6"
         offset="0"
         id="stop54" /><stop
         style="stop-opacity:1;stop-color:#46c1f5"
         offset="0.41503764"
         id="stop56" /><stop
         style="stop-opacity:1;stop-color:#46c1f5"
         offset="1"
         id="stop58" /></linearGradient><clipPath
       clipPathUnits="userSpaceOnUse"
       id="clipPath66"><path
         d="m 0,422.908 616.467,0 L 616.467,0 0,0 0,422.908 Z"
         id="path68"
         inkscape:connector-curvature="0" /></clipPath><clipPath
       clipPathUnits="userSpaceOnUse"
       id="clipPath214"><path
         d="m 0,422.908 616.467,0 L 616.467,0 0,0 0,422.908 Z"
         id="path216"
         inkscape:connector-curvature="0" /></clipPath><clipPath
       clipPathUnits="userSpaceOnUse"
       id="clipPath222"><path
         d="m 465.208,25.3428 130.162,0 0,-10.6856 -130.162,0 0,10.6856 z"
         id="path224"
         inkscape:connector-curvature="0" /></clipPath></defs><sodipodi:namedview
     pagecolor="#0200ff"
     bordercolor="#666666"
     borderopacity="1"
     objecttolerance="10"
     gridtolerance="10"
     guidetolerance="10"
     inkscape:pageopacity="0"
     inkscape:pageshadow="2"
     inkscape:window-width="1920"
     inkscape:window-height="1031"
     id="namedview4"
     showgrid="false"
     inkscape:zoom="3.1242386"
     inkscape:cx="215.8926"
     inkscape:cy="46.000002"
     inkscape:window-x="0"
     inkscape:window-y="25"
     inkscape:window-maximized="1"
     inkscape:current-layer="g10"
     fit-margin-top="0"
     fit-margin-left="0"
     fit-margin-right="0"
     fit-margin-bottom="0" /><g
     id="g10"
     inkscape:groupmode="layer"
     inkscape:label="Qubela_Logo_V2"
     transform="matrix(1.25,0,0,-1.25,-259.1808,180.5403)"><g
       id="g4193"
       transform="matrix(3.1726024,0,0,3.1726024,-825.71644,-233.84206)"><path
         d="m 330.36846,110.30961 2.62659,-1.29213 c 0.50026,-0.2463 0.85487,-0.98885 0.79255,-1.65875 l -0.32828,-3.51778 c -0.0627,-0.6699 -0.51892,-1.01351 -1.01885,-0.76755 l -2.62692,1.29213 c -0.50026,0.2463 -0.85487,0.98885 -0.79254,1.65908 l 0.32828,3.51745 c 0.0627,0.67023 0.51892,1.01384 1.01917,0.76755"
         style="fill:#ffffff;fill-opacity:1;fill-rule:evenodd;stroke:none;stroke-opacity:1"
         id="path142"
         inkscape:connector-curvature="0" /><path
         d="m 338.0818,110.23769 -2.85456,-1.14849 c -0.54392,-0.21897 -1.03484,-0.93952 -1.0975,-1.60909 l -0.32828,-3.51778 c -0.0623,-0.67023 0.32762,-1.03584 0.8712,-0.81687 l 2.85422,1.14848 c 0.54392,0.21864 1.03517,0.93919 1.0975,1.60909 l 0.32861,3.51778 c 0.0623,0.67023 -0.32761,1.03584 -0.87119,0.81688"
         style="fill:#ffffff;fill-opacity:1;fill-rule:evenodd;stroke:none;stroke-opacity:1"
         id="path146"
         inkscape:connector-curvature="0" /><path
         d="m 331.0129,111.4569 2.85422,1.12482 c 0.54358,0.21497 1.36412,0.2043 1.83271,-0.0227 l 2.45895,-1.19282 c 0.46826,-0.2273 0.40727,-0.58524 -0.13631,-0.79954 l -2.85422,-1.12549 c -0.54358,-0.21397 -1.36412,-0.20397 -1.83238,0.0233 l -2.45929,1.19348 c -0.46826,0.22663 -0.40727,0.58458 0.13632,0.79888"
         style="fill:#ffffff;fill-opacity:1;fill-rule:evenodd;stroke:none;stroke-opacity:1"
         id="path150"
         inkscape:connector-curvature="0" /><path
         d="m 334.17714,100.92793 c -3.8444,0 -6.96092,3.03187 -6.96092,6.77195 0,3.74008 3.11652,6.77228 6.96092,6.77228 3.8444,0 6.96091,-3.0322 6.96091,-6.77228 0,-3.74008 -3.11651,-6.77195 -6.96091,-6.77195 m -0.079,15.02067 c -4.68294,0 -8.47868,-3.69343 -8.47868,-8.24872 0,-4.55562 3.79574,-8.248715 8.47868,-8.248715 4.6826,0 8.47868,3.693095 8.47868,8.248715 0,4.55529 -3.79608,8.24872 -8.47868,8.24872"
         style="fill:#ffffff;fill-opacity:1;fill-rule:evenodd;stroke:none;stroke-opacity:1"
         id="path154"
         inkscape:connector-curvature="0" /><path
         d="m 354.04221,100.29163 c -0.65723,-0.1793 -1.35312,-0.26995 -2.08767,-0.27195 -2.03902,-0.006 -3.77942,0.67056 -5.21919,2.03068 -1.44044,1.35979 -2.16366,3.00853 -2.16933,4.94556 -0.006,1.93737 0.70689,3.59044 2.13933,4.9589 1.43178,1.36912 3.16751,2.05634 5.20653,2.06268 2.03934,0.006 3.77874,-0.6709 5.21952,-2.03069 1.44011,-1.36012 2.16333,-3.00886 2.16899,-4.94589 l 0.0333,-10.998291 -3.15718,-0.0097 -0.0337,11.107611 c -0.0253,1.05182 -0.43959,1.95668 -1.2418,2.71456 -0.82454,0.77855 -1.81805,1.16617 -2.97987,1.16282 -1.16249,-0.004 -2.153,-0.39727 -2.97287,-1.18081 -0.81988,-0.78355 -1.22848,-1.7274 -1.22481,-2.83123 0.003,-1.10415 0.41727,-2.04535 1.2418,-2.82423 0.82454,-0.77854 1.81772,-1.16615 2.97987,-1.16248 0.76722,0.002 1.46344,0.1763 2.08735,0.52192 l 0.01,-3.2495 z"
         style="fill:#ffffff;fill-opacity:1;fill-rule:nonzero;stroke:none;stroke-opacity:1"
         id="path158"
         inkscape:connector-curvature="0" /><path
         d="m 354.04221,100.29163 c -0.65723,-0.1793 -1.35312,-0.26995 -2.08767,-0.27195 -2.03902,-0.006 -3.77942,0.67056 -5.21919,2.03068 -1.44044,1.35979 -2.16366,3.00853 -2.16933,4.94556 -0.006,1.93737 0.70689,3.59044 2.13933,4.9589 1.43178,1.36912 3.16751,2.05634 5.20653,2.06268 2.03934,0.006 3.77874,-0.6709 5.21952,-2.03069 1.44011,-1.36012 2.16333,-3.00886 2.16899,-4.94589 l 0.0333,-10.998291 -3.15718,-0.0097 -0.0337,11.107611 c -0.0253,1.05182 -0.43959,1.95668 -1.2418,2.71456 -0.82454,0.77855 -1.81805,1.16617 -2.97987,1.16282 -1.16249,-0.004 -2.153,-0.39727 -2.97287,-1.18081 -0.81988,-0.78355 -1.22848,-1.7274 -1.22481,-2.83123 0.003,-1.10415 0.41727,-2.04535 1.2418,-2.82423 0.82454,-0.77854 1.81772,-1.16615 2.97987,-1.16248 0.76722,0.002 1.46344,0.1763 2.08735,0.52192 l 0.01,-3.2495 z"
         style="fill:#ffffff;stroke:none;stroke-width:3;stroke-linecap:butt;stroke-linejoin:miter;stroke-miterlimit:10;stroke-dasharray:none;stroke-opacity:1"
         id="path162"
         inkscape:connector-curvature="0" /><path
         inkscape:connector-curvature="0"
         id="path164"
         style="fill:#ffffff;fill-opacity:1;fill-rule:nonzero;stroke:none;stroke-opacity:1"
         d="m 370.37957,114.03263 3.15751,0 0,-14.033151 -3.15751,0 0,14.033151 z m -2.10501,-13.99782 c -2.03901,0 -3.77674,0.68222 -5.21285,2.04668 -1.43645,1.36412 -2.15434,3.0152 -2.15434,4.95223 l 0,6.99891 3.15751,0 0,-6.99891 c 0,-1.10383 0.41094,-2.04668 1.23314,-2.82756 0.82221,-0.78121 1.81439,-1.17182 2.97654,-1.17182 l 0,-2.99953 z" /><path
         inkscape:connector-curvature="0"
         id="path166"
         style="fill:#ffffff;stroke:none;stroke-width:3;stroke-linecap:butt;stroke-linejoin:miter;stroke-miterlimit:10;stroke-dasharray:none;stroke-opacity:1"
         d="m 370.37957,114.03263 3.15751,0 0,-14.033151 -3.15751,0 0,14.033151 z m -2.10501,-13.99782 c -2.03901,0 -3.77674,0.68222 -5.21285,2.04668 -1.43645,1.36412 -2.15434,3.0152 -2.15434,4.95223 l 0,6.99891 3.15751,0 0,-6.99891 c 0,-1.10383 0.41094,-2.04668 1.23314,-2.82756 0.82221,-0.78121 1.81439,-1.17182 2.97654,-1.17182 l 0,-2.99953 z" /><path
         d="m 380.31252,113.43345 c 0.6579,0.17698 1.35379,0.26563 2.08867,0.26563 2.03902,0 3.77642,-0.68223 5.21286,-2.04668 1.43611,-1.36446 2.15433,-3.0152 2.15433,-4.95223 0,-1.93737 -0.71822,-3.58811 -2.15433,-4.95256 -1.43644,-1.36412 -3.17384,-2.046351 -5.21286,-2.046351 -2.03934,0 -3.77707,0.682231 -5.21318,2.046351 -1.43645,1.36445 -2.15433,3.01519 -2.15433,4.95256 l 0,10.99829 3.1575,0 0,-11.10761 c 0.0217,-1.05183 0.43294,-1.95803 1.23315,-2.71824 0.82253,-0.78121 1.81438,-1.17182 2.97686,-1.17182 1.16182,0 2.154,0.39061 2.97654,1.17182 0.82221,0.78088 1.23314,1.7234 1.23314,2.82756 0,1.10383 -0.41093,2.04635 -1.23314,2.82756 -0.82254,0.78121 -1.81472,1.17182 -2.97654,1.17182 -0.76754,0 -1.46377,-0.17198 -2.08867,-0.51559 l 0,3.24949 z"
         style="fill:#ffffff;fill-opacity:1;fill-rule:nonzero;stroke:none;stroke-opacity:1"
         id="path170"
         inkscape:connector-curvature="0" /><path
         d="m 380.31252,113.43345 c 0.6579,0.17698 1.35379,0.26563 2.08867,0.26563 2.03902,0 3.77642,-0.68223 5.21286,-2.04668 1.43611,-1.36446 2.15433,-3.0152 2.15433,-4.95223 0,-1.93737 -0.71822,-3.58811 -2.15433,-4.95256 -1.43644,-1.36412 -3.17384,-2.046351 -5.21286,-2.046351 -2.03934,0 -3.77707,0.682231 -5.21318,2.046351 -1.43645,1.36445 -2.15433,3.01519 -2.15433,4.95256 l 0,10.99829 3.1575,0 0,-11.10761 c 0.0217,-1.05183 0.43294,-1.95803 1.23315,-2.71824 0.82253,-0.78121 1.81438,-1.17182 2.97686,-1.17182 1.16182,0 2.154,0.39061 2.97654,1.17182 0.82221,0.78088 1.23314,1.7234 1.23314,2.82756 0,1.10383 -0.41093,2.04635 -1.23314,2.82756 -0.82254,0.78121 -1.81472,1.17182 -2.97654,1.17182 -0.76754,0 -1.46377,-0.17198 -2.08867,-0.51559 l 0,3.24949 z"
         style="fill:#ffffff;stroke:none;stroke-width:3;stroke-linecap:butt;stroke-linejoin:miter;stroke-miterlimit:10;stroke-dasharray:none;stroke-opacity:1"
         id="path174"
         inkscape:connector-curvature="0" /><path
         d="m 402.506,108.11692 c -0.17797,0.74421 -0.55025,1.40444 -1.11716,1.98002 -0.83354,0.84587 -1.83972,1.26914 -3.01753,1.26914 -1.17815,0 -2.18399,-0.42327 -3.01753,-1.26914 -0.83354,-0.8462 -1.25047,-1.86738 -1.25047,-3.06319 0,-1.19615 0.41693,-2.21732 1.25047,-3.06352 0.83354,-0.84587 1.83938,-1.26914 3.01753,-1.26914 1.17781,0 2.17833,0.41727 3.0012,1.25247 l 2.26731,-2.30164 c -1.44511,-1.46677 -3.20117,-2.200322 -5.26851,-2.200322 -2.06735,0 -3.82941,0.738882 -5.28518,2.216652 -1.45611,1.47811 -2.18399,3.26649 -2.18399,5.3655 0,2.09867 0.72788,3.88673 2.18399,5.36517 1.45577,1.47777 3.21783,2.21665 5.28518,2.21665 2.06734,0 3.82907,-0.73888 5.28518,-2.21665 1.45577,-1.47844 2.18399,-3.2665 2.18399,-5.36517 0,-0.76721 -0.0947,-1.48977 -0.28362,-2.16666 l -7.18555,0 0,3.24983 4.13469,0 z"
         style="fill:#ffffff;fill-opacity:1;fill-rule:nonzero;stroke:none;stroke-opacity:1"
         id="path178"
         inkscape:connector-curvature="0" /><path
         d="m 402.506,108.11692 c -0.17797,0.74421 -0.55025,1.40444 -1.11716,1.98002 -0.83354,0.84587 -1.83972,1.26914 -3.01753,1.26914 -1.17815,0 -2.18399,-0.42327 -3.01753,-1.26914 -0.83354,-0.8462 -1.25047,-1.86738 -1.25047,-3.06319 0,-1.19615 0.41693,-2.21732 1.25047,-3.06352 0.83354,-0.84587 1.83938,-1.26914 3.01753,-1.26914 1.17781,0 2.17833,0.41727 3.0012,1.25247 l 2.26731,-2.30164 c -1.44511,-1.46677 -3.20117,-2.200322 -5.26851,-2.200322 -2.06735,0 -3.82941,0.738882 -5.28518,2.216652 -1.45611,1.47811 -2.18399,3.26649 -2.18399,5.3655 0,2.09867 0.72788,3.88673 2.18399,5.36517 1.45577,1.47777 3.21783,2.21665 5.28518,2.21665 2.06734,0 3.82907,-0.73888 5.28518,-2.21665 1.45577,-1.47844 2.18399,-3.2665 2.18399,-5.36517 0,-0.76721 -0.0947,-1.48977 -0.28362,-2.16666 l -7.18555,0 0,3.24983 4.13469,0 z"
         style="fill:#ffffff;stroke:none;stroke-width:3;stroke-linecap:butt;stroke-linejoin:miter;stroke-miterlimit:10;stroke-dasharray:none;stroke-opacity:1"
         id="path182"
         inkscape:connector-curvature="0" /><path
         d="m 413.13764,108.69982 c 0,-0.55191 -0.20563,-1.02317 -0.6169,-1.41378 -0.41094,-0.3906 -0.90719,-0.5859 -1.4881,-0.5859 -0.58125,0 -1.07717,0.1953 -1.4881,0.5859 -0.41127,0.39061 -0.61691,0.86187 -0.61691,1.41378 0,0.55192 0.20564,1.02318 0.61691,1.41378 0.41093,0.39061 0.90685,0.58591 1.4881,0.58591 0.58091,0 1.07716,-0.1953 1.4881,-0.58591 0.41127,-0.3906 0.6169,-0.86186 0.6169,-1.41378"
         style="fill:#ffffff;fill-opacity:1;fill-rule:nonzero;stroke:none;stroke-opacity:1"
         id="path186"
         inkscape:connector-curvature="0" /><path
         d="m 413.13764,108.69982 c 0,-0.55191 -0.20563,-1.02317 -0.6169,-1.41378 -0.41094,-0.3906 -0.90719,-0.5859 -1.4881,-0.5859 -0.58125,0 -1.07717,0.1953 -1.4881,0.5859 -0.41127,0.39061 -0.61691,0.86187 -0.61691,1.41378 0,0.55192 0.20564,1.02318 0.61691,1.41378 0.41093,0.39061 0.90685,0.58591 1.4881,0.58591 0.58091,0 1.07716,-0.1953 1.4881,-0.58591 0.41127,-0.3906 0.6169,-0.86186 0.6169,-1.41378 z"
         style="fill:#ffffff;stroke:none;stroke-width:3;stroke-linecap:butt;stroke-linejoin:miter;stroke-miterlimit:10;stroke-dasharray:none;stroke-opacity:1"
         id="path190"
         inkscape:connector-curvature="0" /><path
         inkscape:connector-curvature="0"
         id="path192"
         style="fill:#ffffff;fill-opacity:1;fill-rule:nonzero;stroke:none;stroke-width:3;stroke-linecap:butt;stroke-linejoin:miter;stroke-miterlimit:10;stroke-dasharray:none;stroke-opacity:1"
         d="m 418.3511,100.28843 -3.15751,0 0,17.9972 3.15751,0 0,-17.9972 z" /><path
         d="m 428.6084,100.3001 c -0.65823,-0.17697 -1.35412,-0.26563 -2.08867,-0.26563 -2.03935,0 -3.77708,0.68223 -5.21319,2.04669 -1.43611,1.36445 -2.154,3.01519 -2.154,4.95222 0,1.93737 0.71789,3.58811 2.154,4.95257 1.43611,1.36412 3.17384,2.04634 5.21319,2.04634 2.03934,0 3.77641,-0.68222 5.21318,-2.04634 1.43611,-1.36446 2.154,-3.0152 2.154,-4.95257 l 0,-6.99891 -3.15717,0 0,7.10823 c -0.022,1.05184 -0.4336,1.95803 -1.23348,2.71824 -0.8222,0.78122 -1.81472,1.17182 -2.97653,1.17182 -1.16249,0 -2.15434,-0.3906 -2.97654,-1.17182 -0.82221,-0.78087 -1.23348,-1.72339 -1.23348,-2.82756 0,-1.10382 0.41127,-2.04634 1.23348,-2.82756 0.8222,-0.78121 1.81405,-1.17181 2.97654,-1.17181 0.76721,0 1.46377,0.17197 2.08867,0.51558 l 0,-3.24949 z"
         style="fill:#ffffff;fill-opacity:1;fill-rule:nonzero;stroke:none;stroke-opacity:1"
         id="path196"
         inkscape:connector-curvature="0" /><path
         d="m 428.6084,100.3001 c -0.65823,-0.17697 -1.35412,-0.26563 -2.08867,-0.26563 -2.03935,0 -3.77708,0.68223 -5.21319,2.04669 -1.43611,1.36445 -2.154,3.01519 -2.154,4.95222 0,1.93737 0.71789,3.58811 2.154,4.95257 1.43611,1.36412 3.17384,2.04634 5.21319,2.04634 2.03934,0 3.77641,-0.68222 5.21318,-2.04634 1.43611,-1.36446 2.154,-3.0152 2.154,-4.95257 l 0,-6.99891 -3.15717,0 0,7.10823 c -0.022,1.05184 -0.4336,1.95803 -1.23348,2.71824 -0.8222,0.78122 -1.81472,1.17182 -2.97653,1.17182 -1.16249,0 -2.15434,-0.3906 -2.97654,-1.17182 -0.82221,-0.78087 -1.23348,-1.72339 -1.23348,-2.82756 0,-1.10382 0.41127,-2.04634 1.23348,-2.82756 0.8222,-0.78121 1.81405,-1.17181 2.97654,-1.17181 0.76721,0 1.46377,0.17197 2.08867,0.51558 l 0,-3.24949 z"
         style="fill:#ffffff;stroke:none;stroke-width:3;stroke-linecap:butt;stroke-linejoin:miter;stroke-miterlimit:10;stroke-dasharray:none;stroke-opacity:1"
         id="path200"
         inkscape:connector-curvature="0" /><path
         d="m 434.29795,117.03186 c 0,-0.55191 -0.20564,-1.02317 -0.61691,-1.41378 -0.41093,-0.39061 -0.90685,-0.58591 -1.4881,-0.58591 -0.58157,0 -1.07716,0.1953 -1.4881,0.58591 -0.4116,0.39061 -0.6169,0.86187 -0.6169,1.41378 0,0.55191 0.2053,1.02317 0.6169,1.41378 0.41094,0.39061 0.90653,0.58591 1.4881,0.58591 0.58125,0 1.07717,-0.1953 1.4881,-0.58591 0.41127,-0.39061 0.61691,-0.86187 0.61691,-1.41378"
         style="fill:none;fill-opacity:1;fill-rule:nonzero;stroke:#ffffff;stroke-width:0.40000001;stroke-miterlimit:4;stroke-dasharray:none;stroke-opacity:1"
         id="path204"
         inkscape:connector-curvature="0" /><text
         transform="scale(1,-1)"
         sodipodi:linespacing="125%"
         id="text4452"
         y="-115.90118"
         x="431.1796"
         style="font-style:normal;font-weight:normal;font-size:1.99968863px;line-height:125%;font-family:sans-serif;letter-spacing:0px;word-spacing:0px;fill:#ffffff;fill-opacity:1;stroke:none;stroke-width:1px;stroke-linecap:butt;stroke-linejoin:miter;stroke-opacity:1"
         xml:space="preserve"><tspan
           style="font-size:3.33281446px;fill:#ffffff;stroke:none;stroke-opacity:1"
           y="-115.90118"
           x="431.1796"
           id="tspan4454"
           sodipodi:role="line">R</tspan></text>
</g></g></svg>